External Loads File
version=1
nRows=38
nColumns=13
Range=5.000000e-03-10 seconds
endheader
time 	forceRightX 	forceRightY 	forceRightZ 	pointRightX 	pointRightY 	pointRightZ 	forceLeftX 	forceLeftY 	forceLeftZ 	pointLeftX 	pointLeftY 	pointLeftZ 		
0.005000 55.520375 250.017358 -0.000000 0.127899 0.281110 -0.123919 -150.821309 181.041437 -0.000000 0.445657 0.368263 -0.368346
0.010000 56.685884 249.888394 -0.000000 0.127918 0.281083 -0.123911 -151.731516 180.509702 -0.000000 0.445659 0.368279 -0.368340
0.015000 57.719131 249.713314 -0.000000 0.127935 0.281054 -0.123883 -152.586119 180.006509 -0.000000 0.445652 0.368312 -0.368331
0.020000 58.610882 249.484166 -0.000000 0.127952 0.281028 -0.123882 -153.323188 179.571237 -0.000000 0.445655 0.368346 -0.368334
0.025000 59.263533 249.221073 -0.000000 0.127801 0.281307 -0.123989 -154.005078 179.165923 -0.000000 0.445386 0.368753 -0.368596
0.030000 59.893748 248.871929 -0.000000 0.127771 0.281333 -0.124033 -154.486772 178.937519 -0.000000 0.445469 0.368725 -0.368510
0.035000 60.224126 248.508891 -0.000000 0.127758 0.281355 -0.124055 -154.974103 178.720697 -0.000000 0.445459 0.368758 -0.368540
0.040000 60.352465 248.134281 -0.000000 0.127734 0.281378 -0.124069 -155.402945 178.566465 -0.000000 0.445466 0.368780 -0.368548
0.045000 60.330819 247.785500 -0.000000 0.127698 0.281371 -0.124098 -155.743569 178.476766 -0.000000 0.445456 0.368765 -0.368551
0.050000 60.227291 247.506691 -0.000000 0.127671 0.281377 -0.124121 -155.963776 178.446315 -0.000000 0.445456 0.368780 -0.368565
0.055000 60.151225 247.322026 -0.000000 0.127638 0.281393 -0.124135 -156.029490 178.489749 -0.000000 0.445457 0.368790 -0.368584
0.060000 60.147994 247.247638 -0.000000 0.127603 0.281388 -0.124153 -155.973779 178.591961 -0.000000 0.445451 0.368778 -0.368595
0.065000 60.228984 247.280855 -0.000000 0.127594 0.281397 -0.124154 -155.847784 178.738075 -0.000000 0.445449 0.368781 -0.368588
0.070000 60.419286 247.396440 -0.000000 0.127579 0.281415 -0.124147 -155.679059 178.938030 -0.000000 0.445470 0.368759 -0.368574
0.075000 60.629056 247.589396 -0.000000 0.127580 0.281417 -0.124117 -155.568560 179.132407 -0.000000 0.445478 0.368775 -0.368570
0.080000 60.912806 247.814667 -0.000000 0.127598 0.281417 -0.124098 -155.489161 179.353425 -0.000000 0.445478 0.368754 -0.368564
0.085000 61.217287 248.052811 -0.000000 0.127601 0.281435 -0.124073 -155.456833 179.569997 -0.000000 0.445480 0.368770 -0.368554
0.090000 61.530924 248.285622 -0.000000 0.127609 0.281426 -0.124076 -155.435860 179.780106 -0.000000 0.445485 0.368764 -0.368564
0.095000 61.851017 248.506688 -0.000000 0.127616 0.281439 -0.124096 -155.385126 179.988532 -0.000000 0.445475 0.368765 -0.368574
0.100000 62.143139 248.722307 -0.000000 0.127613 0.281431 -0.124117 -155.310171 180.174957 -0.000000 0.445469 0.368775 -0.368578
0.105000 62.411492 248.925606 -0.000000 0.127610 0.281422 -0.124149 -155.215808 180.334485 -0.000000 0.445453 0.368783 -0.368581
0.110000 62.634404 249.105508 -0.000000 0.127588 0.281403 -0.124168 -155.122400 180.455347 -0.000000 0.445449 0.368782 -0.368597
0.115000 62.748157 249.253740 -0.000000 0.127574 0.281388 -0.124180 -155.058527 180.520922 -0.000000 0.445441 0.368796 -0.368595
0.120000 62.739806 249.356502 -0.000000 0.127589 0.281368 -0.124177 -155.009896 180.550553 -0.000000 0.445431 0.368788 -0.368597
0.125000 62.610562 249.406692 -0.000000 0.127617 0.281375 -0.124154 -154.950566 180.563092 -0.000000 0.445427 0.368796 -0.368594
0.130000 62.360013 249.397617 -0.000000 0.127631 0.281373 -0.124128 -154.850809 180.569121 -0.000000 0.445436 0.368804 -0.368566
0.135000 61.973473 249.324396 -0.000000 0.127662 0.281356 -0.124111 -154.708704 180.559468 -0.000000 0.445437 0.368814 -0.368554
0.140000 61.496056 249.172490 -0.000000 0.127684 0.281355 -0.124110 -154.511872 180.549315 -0.000000 0.445429 0.368818 -0.368560
0.145000 60.932337 248.949007 -0.000000 0.127696 0.281358 -0.124115 -154.301488 180.524400 -0.000000 0.445440 0.368837 -0.368564
0.150000 60.335243 248.662120 -0.000000 0.127714 0.281339 -0.124116 -154.096709 180.498785 -0.000000 0.445452 0.368826 -0.368561
0.155000 59.744294 248.333778 -0.000000 0.127713 0.281335 -0.124149 -153.924208 180.468778 -0.000000 0.445454 0.368844 -0.368572
0.160000 59.242733 247.981747 -0.000000 0.127715 0.281352 -0.124167 -153.762494 180.445616 -0.000000 0.445448 0.368839 -0.368582
0.165000 58.787614 247.652353 -0.000000 0.127696 0.281310 -0.124146 -153.665960 180.361099 -0.000000 0.445460 0.368858 -0.368589
0.170000 58.502791 247.344257 -0.000000 0.127698 0.281320 -0.124145 -153.560097 180.260346 -0.000000 0.445475 0.368852 -0.368582
0.175000 58.360346 247.086532 -0.000000 0.127689 0.281345 -0.124132 -153.480783 180.106728 -0.000000 0.445488 0.368834 -0.368576
0.180000 58.269802 246.921410 -0.000000 0.127692 0.281320 -0.124124 -153.514298 179.839278 -0.000000 0.445500 0.368853 -0.368587
0.185000 58.359460 246.834917 -0.000000 0.127688 0.281339 -0.124122 -153.583907 179.552104 -0.000000 0.445507 0.368841 -0.368573
0.190000 58.561944 246.845036 -0.000000 0.127693 0.281348 -0.124114 -153.733067 179.238412 -0.000000 0.445515 0.368839 -0.368568
